HIERARCHY
ROOT Hips
{
	OFFSET 0.00000 0.00000 0.00000
	CHANNELS 6 Xposition Yposition Zposition Zrotation Yrotation Xrotation 
	JOINT LHipJoint
	{
		OFFSET 0 0 0
		CHANNELS 3 Zrotation Yrotation Xrotation
		JOINT LeftHip
		{
			OFFSET 1.84395 -1.68683 0.74144
			CHANNELS 3 Zrotation Yrotation Xrotation
			JOINT LeftKnee
			{
				OFFSET 2.27037 -6.23779 0.00000
				CHANNELS 3 Zrotation Yrotation Xrotation
				JOINT LeftAnkle
				{
					OFFSET 2.56918 -7.05877 0.00000
					CHANNELS 3 Zrotation Yrotation Xrotation
					JOINT LeftToe
					{
						OFFSET 0.22276 -0.61202 1.71784
						CHANNELS 3 Zrotation Yrotation Xrotation
						End Site
						{
							OFFSET 0.00000 -0.00000 0.91613
						}
					}
				}
			}
		}
	}
	JOINT RHipJoint
	{
		OFFSET 0 0 0
		CHANNELS 3 Zrotation Yrotation Xrotation
		JOINT RightHip
		{
			OFFSET -1.76833 -1.68684 0.74144
			CHANNELS 3 Zrotation Yrotation Xrotation
			JOINT RightKnee
			{
				OFFSET -2.49360 -6.85110 0.00000
				CHANNELS 3 Zrotation Yrotation Xrotation
				JOINT RightAnkle
				{
					OFFSET -2.55538 -7.02085 0.00000
					CHANNELS 3 Zrotation Yrotation Xrotation
					JOINT RightToe
					{
						OFFSET -0.21516 -0.59115 1.68050
						CHANNELS 3 Zrotation Yrotation Xrotation
						End Site
						{
							OFFSET -0.00000 -0.00000 0.89604
						}
					}
				}
			}
		}
	}
	JOINT lowerback
	{
		OFFSET 0 0 0
		CHANNELS 3 Zrotation Yrotation Xrotation
		JOINT Chest
		{
			OFFSET 0.06382 1.72312 -0.19613
			CHANNELS 3 Zrotation Yrotation Xrotation
			JOINT Chest2
			{
				OFFSET -0.00055 1.73507 0.23859
				CHANNELS 3 Zrotation Yrotation Xrotation
				JOINT lowerneck
				{
					OFFSET 0 0 0
					CHANNELS 3 Zrotation Yrotation Xrotation
					JOINT Neck
					{
						OFFSET 0.03638 1.65562 0.09633
						CHANNELS 3 Zrotation Yrotation Xrotation
						JOINT Head
						{
							OFFSET 0.06388 1.62807 -0.32386
							CHANNELS 3 Zrotation Yrotation Xrotation
							End Site
							{
								OFFSET 0.00995 1.67644 -0.12021
							}
						}
					}
				}
				JOINT LeftCollar
				{
					OFFSET 0 0 0
					CHANNELS 3 Zrotation Yrotation Xrotation
					JOINT LeftShoulder
					{
						OFFSET 3.09648 1.42991 0.28122
CHANNELS 3 Zrotation Xrotation Yrotation
						JOINT LeftElbow
						{
OFFSET 0 -5.118780 -0.000000
CHANNELS 3 Zrotation Xrotation Yrotation
							JOINT LeftWrist
							{
OFFSET 0 -3.599710 0.000000
CHANNELS 3 Zrotation Xrotation Yrotation
								JOINT lhand
								{
									OFFSET 0 0 0
CHANNELS 3 Zrotation Xrotation Yrotation
									JOINT LFingers
									{
OFFSET 0 -0.628770 0.000000
CHANNELS 3 Zrotation Xrotation Yrotation
										End Site
										{
OFFSET 0 -0.506930 0.000000
										}
									}
								}
								JOINT LThumb
								{
OFFSET 0 0.000000 0.000000
CHANNELS 3 Zrotation Xrotation Yrotation
									End Site
									{
OFFSET 0 -0.514670 0.514670
									}
								}
							}
						}
					}
				}
				JOINT RightCollar
				{
					OFFSET 0 0 0
					CHANNELS 3 Zrotation Yrotation Xrotation
					JOINT RightShoulder
					{
						OFFSET -3.33565 1.14597 0.05047
CHANNELS 3 Zrotation Xrotation Yrotation
						JOINT RightElbow
						{
OFFSET 0 -5.490200 0.000000
CHANNELS 3 Zrotation Xrotation Yrotation
							JOINT RightWrist
							{
OFFSET 0 -3.206590 -0.000000
CHANNELS 3 Zrotation Xrotation Yrotation
								JOINT rhand
								{
									OFFSET 0 0 0
CHANNELS 3 Zrotation Xrotation Yrotation
									JOINT RFingers
									{
OFFSET 0 -0.691880 0.000000
CHANNELS 3 Zrotation Xrotation Yrotation
										End Site
										{
OFFSET 0 -0.557810 0.000000
										}
									}
								}
								JOINT RThumb
								{
OFFSET 0 0.000000 0.000000
CHANNELS 3 Zrotation Xrotation Yrotation
									End Site
									{
OFFSET 0 -0.566330 0.566330
									}
								}
							}
						}
					}
				}
			}
		}
	}
}
MOTION
Frames: 12
Frame Time: 0.008333333333333333
1.145700 17.401400 8.605600 -9.241900 -1.125600 9.114500 0.000000 0.000000 0.000000 -17.263600 -38.330800 21.252100 0.051800 -1.468700 -4.039600 -5.485500 41.236600 -37.467400 0.276300 3.381000 9.341300 0.000000 0.000000 0.000000 27.154800 25.230900 5.350700 -0.018200 -0.870700 2.393200 0.506500 -17.871800 -20.228500 -0.151000 2.504100 -6.901100 7.300700 1.386300 -1.216600 1.441600 2.221200 -8.637400 -2.675000 0.632800 -8.232900 -13.665400 -13.579400 2.849600 16.827700 -20.254400 9.719800 6.145300 -9.997300 5.586100 -0.000000 0.000000 0.000000 -3.356100 12.425400 15.803200 14.561200 -23.531300 3.048600 17.177800 2.605100 5.487500 0.000000 0.000000 0.000000 -7.125000 0.000000 0.000000 -7.077500 24.241500 -3.573700 -0.000000 0.000000 0.000000 3.985600 8.232700 -18.659900 -14.234000 -23.068200 -2.919200 -4.911500 40.802600 30.970700 0.000000 0.000000 0.000000 7.125000 0.000000 -0.000000 29.778200 58.464600 -10.394100
1.142380 17.401655 8.606399 -9.284694 -1.141228 9.073184 0.000000 0.000000 0.000000 -17.170633 -38.205892 21.231865 0.052266 -1.475466 -4.058144 -5.491760 41.211938 -37.357110 0.260134 3.281283 9.062815 0.000000 0.000000 0.000000 27.266587 25.314618 5.457489 -0.018722 -0.882807 2.426374 0.499289 -17.890012 -20.347943 -0.013197 -0.656220 1.803679 7.289050 1.364228 -1.155565 1.477086 2.199986 -8.646555 -2.631602 0.622692 -8.282676 -13.550191 -13.698976 2.374504 16.348332 -20.399459 10.357216 5.913911 -10.039111 5.821993 0.000000 0.000000 0.000000 -3.417489 12.397392 16.149639 14.551293 -23.517384 3.044668 17.249430 2.882151 5.420063 0.000000 0.000000 0.000000 -7.125000 0.000000 0.000000 -7.026796 24.309367 -3.536620 0.000000 0.000000 0.000000 3.969828 8.283343 -18.565653 -14.229372 -23.061614 -2.917364 -4.647438 40.627515 31.196118 0.000000 0.000000 0.000000 7.125000 0.000000 0.000000 30.234666 58.599779 -10.673045
1.136524 17.405884 8.609916 -9.094194 -1.192069 9.092985 0.000000 0.000000 0.000000 -17.586603 -38.529865 21.511871 0.051684 -1.467015 -4.034843 -5.513895 41.422323 -37.863683 0.274468 3.369435 9.309049 0.000000 0.000000 0.000000 27.069749 25.410098 5.494304 -0.018100 -0.869142 2.388871 0.517000 -18.000024 -20.338798 -0.009228 0.469922 -1.291507 6.968109 1.380324 -1.291309 1.445591 2.193718 -8.610196 -2.482715 0.646187 -8.166473 -13.399071 -13.852488 1.898695 15.927769 -20.583482 10.895159 5.691972 -10.099704 6.036373 0.000000 0.000000 0.000000 -3.373787 12.415433 15.656362 14.634079 -23.633760 3.077818 17.365252 2.515604 4.850123 0.000000 0.000000 0.000000 -7.125000 0.000000 0.000000 -6.962034 24.898437 -3.408552 0.000000 0.000000 0.000000 3.940883 8.169625 -18.688411 -14.165178 -22.970343 -2.892299 -4.638809 40.556464 31.256579 0.000000 0.000000 0.000000 7.125000 0.000000 0.000000 30.296234 58.649622 -10.734406
1.129479 17.419280 8.635499 -8.524067 -1.162484 9.762131 0.000000 0.000000 0.000000 -17.950774 -39.230138 20.985308 0.049967 -1.442809 -3.968160 -5.512119 41.596931 -38.390231 0.317329 3.620514 10.011524 0.000000 0.000000 0.000000 26.037804 25.437203 4.743263 -0.016203 -0.821434 2.257651 0.501149 -17.859389 -20.269230 -0.006347 -0.325445 0.894522 6.111275 1.460188 -2.768791 1.300078 2.136710 -8.534144 -2.117103 0.704099 -7.234662 -12.942921 -14.081897 1.365090 15.371528 -20.833218 11.337344 5.375308 -10.185803 6.192815 0.000000 0.000000 0.000000 -3.208379 12.632783 13.278754 15.080712 -24.258432 3.259048 18.099232 0.396813 2.838887 0.000000 0.000000 0.000000 -7.125000 0.000000 0.000000 -6.495588 26.979540 -2.859306 0.000000 0.000000 0.000000 3.871738 7.640095 -19.081869 -13.884099 -22.568758 -2.783540 -4.644610 40.223422 31.470671 0.000000 0.000000 0.000000 7.125000 0.000000 0.000000 30.480060 58.833788 -10.944874
1.127047 17.422642 8.639958 -8.376179 -1.138863 9.869326 0.000000 0.000000 0.000000 -18.070647 -39.355079 20.910296 0.049947 -1.442164 -3.966291 -5.507122 41.610896 -38.457883 0.320421 3.638318 10.061363 0.000000 0.000000 0.000000 25.809190 25.442607 4.635483 -0.015400 -0.801658 2.203195 0.506142 -17.885761 -20.258311 -0.017353 -0.851683 2.340913 6.091634 1.537529 -2.688117 1.098639 2.246696 -8.768691 -2.326159 0.739336 -7.522195 -12.881964 -14.095747 1.731385 15.476697 -20.906403 11.324149 5.420344 -10.234867 6.142836 0.000000 0.000000 0.000000 -3.001648 12.629570 13.965944 14.923224 -24.039058 3.194640 18.112825 1.224446 2.642783 0.000000 0.000000 0.000000 -7.125000 0.000000 0.000000 -6.494750 27.184112 -2.827103 0.000000 0.000000 0.000000 4.128115 7.995832 -19.306302 -13.895223 -22.584637 -2.787715 -4.719217 39.997225 31.526893 0.000000 0.000000 0.000000 7.125000 0.000000 0.000000 30.456298 58.898447 -10.983430
1.126247 17.423353 8.639336 -8.318547 -1.149474 9.886443 0.000000 0.000000 0.000000 -18.118826 -39.368915 20.863135 0.049147 -1.430170 -3.933157 -5.460809 41.553410 -38.539796 0.329629 3.689795 10.205535 0.000000 0.000000 0.000000 25.737317 25.485930 4.620573 -0.015576 -0.806853 2.217638 0.498013 -17.875093 -20.336077 -0.019210 -0.895831 2.462296 6.124004 1.562217 -2.584431 1.018811 2.288583 -8.861331 -2.433667 0.748030 -7.676987 -12.970402 -14.099267 1.805414 15.601573 -20.949221 11.391151 5.469792 -10.256272 6.181286 0.000000 0.000000 0.000000 -2.935335 12.582922 14.420524 14.828408 -23.906567 3.156070 18.124647 1.695803 2.736968 0.000000 0.000000 0.000000 -7.125000 0.000000 0.000000 -6.481059 27.085481 -2.836173 0.000000 0.000000 0.000000 4.258035 8.128000 -19.477960 -13.921636 -22.622551 -2.797867 -4.710478 40.048096 31.474371 0.000000 0.000000 0.000000 7.125000 0.000000 0.000000 30.418133 58.851584 -10.933154
1.125537 17.423403 8.639795 -8.317267 -1.160967 9.864391 0.000000 0.000000 0.000000 -18.157893 -39.372354 20.932487 0.049892 -1.442151 -3.966282 -5.505572 41.621980 -38.499229 0.332035 3.703492 10.243971 0.000000 0.000000 0.000000 25.749972 25.475654 4.639905 -0.015800 -0.812560 2.233281 0.496632 -17.856021 -20.317201 -0.019029 -0.890609 2.447917 6.154285 1.585439 -2.587596 1.004894 2.318764 -8.850097 -2.465939 0.761093 -7.658989 -13.019261 -14.134684 1.798800 15.636185 -21.009795 11.431578 5.477440 -10.284445 6.213506 0.000000 0.000000 0.000000 -2.896497 12.556390 14.346972 14.817650 -23.891510 3.151726 18.140667 1.742509 2.705226 0.000000 0.000000 0.000000 -7.125000 0.000000 0.000000 -6.470355 27.118473 -2.826384 0.000000 0.000000 0.000000 4.253805 8.137880 -19.467463 -13.934327 -22.640700 -2.802747 -4.797032 40.067958 31.466850 0.000000 0.000000 0.000000 7.125000 0.000000 0.000000 30.325906 58.864550 -10.905599
1.124870 17.422870 8.640040 -8.378345 -1.171270 9.787235 0.000000 0.000000 0.000000 -18.235045 -39.427548 21.147725 0.049766 -1.439467 -3.958819 -5.395088 41.555239 -38.893268 0.356290 3.834703 10.612146 0.000000 0.000000 0.000000 25.867212 25.430699 4.740816 -0.015513 -0.805013 2.212389 0.501160 -17.856380 -20.263702 -0.018823 -0.884997 2.432470 6.259009 1.623660 -2.518585 0.995286 2.376449 -8.831919 -2.538062 0.781918 -7.671511 -13.187567 -14.154110 1.864012 15.773063 -21.068648 11.461872 5.538755 -10.316484 6.254798 0.000000 0.000000 0.000000 -2.813467 12.582686 14.105719 14.833627 -23.913763 3.158180 18.245071 1.684536 2.629089 0.000000 0.000000 0.000000 -7.125000 0.000000 0.000000 -6.394311 27.196756 -2.780925 0.000000 0.000000 0.000000 4.279084 8.126232 -19.511945 -13.935465 -22.642395 -2.803247 -4.704238 39.993284 31.464329 0.000000 0.000000 0.000000 7.125000 0.000000 0.000000 30.415491 58.841731 -10.924706
1.124137 17.422469 8.638327 -8.405028 -1.159944 9.791053 0.000000 0.000000 0.000000 -18.149585 -39.379873 21.067447 0.049216 -1.431638 -3.937387 -5.450214 41.577352 -38.665610 0.338734 3.739985 10.346291 0.000000 0.000000 0.000000 25.872114 25.335684 4.690422 -0.015300 -0.799305 2.196716 0.490036 -17.765381 -20.230907 -0.019400 -0.899790 2.473190 6.245040 1.609877 -2.619947 1.039999 2.349411 -8.777224 -2.478776 0.775792 -7.557003 -13.085229 -14.216471 1.644511 15.669306 -21.139718 11.599146 5.463113 -10.335378 6.323086 0.000000 0.000000 0.000000 -2.815346 12.773345 13.271013 15.018532 -24.171791 3.233564 18.422731 0.774900 2.423459 0.000000 0.000000 0.000000 -7.125000 0.000000 0.000000 -6.268504 27.410118 -2.694014 0.000000 0.000000 0.000000 4.220872 8.021579 -19.428810 -13.926394 -22.629406 -2.799765 -4.645550 39.901917 31.437635 0.000000 0.000000 0.000000 7.125000 0.000000 0.000000 30.449696 58.805821 -10.911866
1.118256 17.419133 8.628696 -8.435917 -0.995289 9.964169 0.000000 0.000000 0.000000 -17.822865 -39.535024 20.646298 0.046039 -1.384869 -3.808467 -5.383540 41.422765 -38.576358 0.339953 3.746889 10.365626 0.000000 0.000000 0.000000 25.866395 25.480297 4.489006 -0.015695 -0.807790 2.220001 0.515295 -17.969278 -20.302949 -0.017131 -0.845919 2.324877 6.033723 1.494897 -2.995407 1.229506 2.164729 -8.630563 -2.143666 0.720150 -7.205671 -13.199823 -14.200857 1.344558 15.729431 -21.084284 11.534227 5.480315 -10.295184 6.364541 0.000000 0.000000 0.000000 -3.023216 12.670383 12.657410 15.180135 -24.396448 3.300013 18.496139 0.046298 2.207085 0.000000 0.000000 0.000000 -7.125000 0.000000 0.000000 -6.222854 27.636027 -2.640846 0.000000 0.000000 0.000000 3.987947 7.649139 -19.183668 -13.940455 -22.649562 -2.805129 -4.587136 39.940690 31.536096 0.000000 0.000000 0.000000 7.125000 0.000000 0.000000 30.595164 58.876672 -11.023352
1.118010 17.419916 8.629760 -8.432889 -1.059094 9.925064 0.000000 0.000000 0.000000 -17.986385 -39.617351 20.849869 0.045516 -1.377191 -3.787286 -5.398993 41.530270 -38.802186 0.341475 3.755120 10.388638 0.000000 0.000000 0.000000 25.880589 25.478486 4.533362 -0.015800 -0.810932 2.228801 0.506277 -17.913334 -20.307227 -0.020213 -0.917296 2.521329 6.259809 1.613045 -2.622916 1.046585 2.359449 -8.880038 -2.481238 0.775028 -7.667725 -13.262913 -14.225105 1.621062 15.808723 -21.184613 11.686231 5.520036 -10.354453 6.396767 0.000000 0.000000 0.000000 -2.849335 12.583537 13.968115 14.889634 -23.992067 3.180917 18.213569 1.498578 2.695418 0.000000 0.000000 0.000000 -7.125000 0.000000 0.000000 -6.415194 27.127826 -2.800686 0.000000 0.000000 0.000000 4.291908 8.096607 -19.451915 -14.002661 -22.738455 -2.829128 -4.702612 39.969523 31.563066 0.000000 0.000000 0.000000 7.125000 0.000000 0.000000 30.505207 58.925567 -11.023413
1.114514 17.418499 8.623535 -8.415265 -0.986555 10.028555 0.000000 0.000000 0.000000 -17.624608 -39.400758 20.352094 0.045884 -1.382049 -3.800648 -5.431601 41.394269 -38.234731 0.317716 3.623250 10.019020 0.000000 0.000000 0.000000 25.822602 25.539711 4.390459 -0.016262 -0.822498 2.260532 0.513599 -17.967891 -20.320517 -0.020969 -0.934979 2.569964 6.203387 1.602356 -2.681440 1.058667 2.341997 -8.915729 -2.435235 0.770109 -7.676187 -13.288421 -14.240609 1.590482 15.807588 -21.205572 11.705773 5.517227 -10.363335 6.413987 0.000000 0.000000 0.000000 -2.860245 12.505292 14.065348 14.863082 -23.955024 3.170142 18.173041 1.548069 2.762477 0.000000 0.000000 0.000000 -7.125000 0.000000 0.000000 -6.442887 27.058216 -2.823464 0.000000 0.000000 0.000000 4.246242 8.058939 -19.415891 -13.972553 -22.695411 -2.817527 -4.816158 39.979447 31.527447 0.000000 0.000000 0.000000 7.125000 0.000000 0.000000 30.361093 58.920549 -10.961323
